<svg width="30" height="30" viewBox="0 0 30 30" fill="none" xmlns="http://www.w3.org/2000/svg">
<path fill-rule="evenodd" clip-rule="evenodd" d="M26.3347 0C28.3577 0 30 1.64238 30 3.66527V26.3347C30 28.3576 28.3576 30 26.3347 30H3.66527C1.64238 30 0 28.3576 0 26.3347V3.66527C0 1.64238 1.64232 0 3.66527 0H26.3347V0ZM26.7006 19.3744C26.7544 18.5644 26.6885 17.7911 26.501 17.0505C26.3118 16.3088 26.0083 15.6475 25.5834 15.0695C25.1579 14.4903 24.6159 14.0276 23.9558 13.6859C23.2922 13.3397 22.5195 13.17 21.6363 13.17C20.8363 13.17 20.1141 13.312 19.4589 13.5944C18.8043 13.8784 18.2423 14.2668 17.768 14.7588C17.2948 15.2481 16.9342 15.8317 16.6746 16.508C16.4194 17.182 16.2891 17.9109 16.2891 18.6915C16.2891 19.4986 16.4145 20.2437 16.6635 20.9166C16.9154 21.5928 17.2688 22.1687 17.7237 22.6557C18.1908 23.1411 18.7455 23.5128 19.4095 23.7785C20.0742 24.0404 20.8142 24.1735 21.6363 24.1735C22.8163 24.1735 23.8281 23.9033 24.6586 23.3613C25.4991 22.821 26.1143 21.924 26.5204 20.6675H23.9951C23.8975 20.9903 23.6445 21.3016 23.229 21.5928C22.8096 21.8846 22.3103 22.0305 21.7323 22.0305C20.9279 22.0305 20.3071 21.8197 19.8772 21.4003C19.4467 20.9809 19.1682 20.1998 19.1682 19.3744H26.7006ZM10.2678 23.9033C10.9147 23.9033 11.5454 23.8218 12.1528 23.6609C12.7675 23.4995 13.315 23.2509 13.7927 22.9131C14.2665 22.578 14.6509 22.1437 14.9333 21.6078C15.2134 21.078 15.3532 20.4489 15.3532 19.7177C15.3532 18.8157 15.1385 18.0468 14.7008 17.4039C14.2654 16.7654 13.6074 16.3165 12.7215 16.0614C13.3722 15.7529 13.8598 15.3563 14.1915 14.8726C14.5216 14.3877 14.6858 13.7814 14.6858 13.0557C14.6858 12.385 14.5754 11.8175 14.3563 11.3643C14.1311 10.9044 13.8165 10.5394 13.4149 10.2647C13.0066 9.99018 12.5245 9.7899 11.9587 9.67008C11.39 9.54639 10.7676 9.48703 10.0781 9.48703H3.28125V23.9033H10.2678ZM9.90609 17.4782C10.589 17.4782 11.1443 17.6352 11.5615 17.9514C11.977 18.2715 12.1867 18.7996 12.1867 19.5424C12.1867 19.9213 12.1251 20.2354 11.997 20.4772C11.8693 20.7202 11.693 20.9121 11.481 21.0519C11.268 21.1973 11.0167 21.296 10.7327 21.3576C10.4531 21.4203 10.1557 21.448 9.8434 21.448H6.45498V17.4782H9.90609ZM23.1719 15.9155C22.8307 15.5388 22.2543 15.3346 21.5503 15.3346C21.0921 15.3346 20.7132 15.4117 20.4092 15.5688C20.1118 15.7241 19.8689 15.9166 19.683 16.144C19.4978 16.3748 19.3724 16.6189 19.2986 16.8796C19.2254 17.1337 19.181 17.3639 19.1682 17.5675H23.8326C23.7643 16.8364 23.5141 16.2955 23.1719 15.9155ZM9.4251 11.9429C9.70641 11.9429 9.97992 11.9629 10.2417 12.0139C10.5074 12.0599 10.7371 12.1443 10.9402 12.2669C11.1443 12.385 11.3068 12.5531 11.4294 12.7684C11.5476 12.9836 11.6058 13.261 11.6058 13.596C11.6058 14.2007 11.4294 14.6406 11.0644 14.9075C10.6955 15.1782 10.2295 15.3114 9.66756 15.3114H6.45498V11.9429H9.4251ZM24.425 11.8769V10.4545H18.5813V11.8769H24.425Z" fill="#828282"/>
</svg>
