<svg width="30" height="30" viewBox="0 0 30 30" fill="none" xmlns="http://www.w3.org/2000/svg">
<path fill-rule="evenodd" clip-rule="evenodd" d="M26.3347 0C28.3577 0 30 1.64238 30 3.66527V26.3347C30 28.3576 28.3576 30 26.3347 30H20.0964V18.6964H23.9987L24.7412 13.8553H20.0964V10.7137C20.0964 9.3893 20.7452 8.0983 22.8257 8.0983H24.9375V3.97682C24.9375 3.97682 23.0209 3.64975 21.1886 3.64975C17.3631 3.64975 14.8628 5.96824 14.8628 10.1656V13.8553H10.6104V18.6964H14.8628V30H3.66527C1.64238 30 0 28.3576 0 26.3347V3.66527C0 1.64238 1.64232 0 3.66527 0H26.3347V0Z" fill="#828282"/>
</svg>
