<svg width="30" height="30" viewBox="0 0 30 30" fill="none" xmlns="http://www.w3.org/2000/svg">
<path fill-rule="evenodd" clip-rule="evenodd" d="M26.3347 0C28.3577 0 30 1.64238 30 3.66527V26.3347C30 28.3576 28.3576 30 26.3347 30H3.66527C1.64238 30 0 28.3576 0 26.3347V3.66527C0 1.64238 1.64232 0 3.66527 0H26.3347V0ZM15 4.74609C12.2152 4.74609 11.866 4.75787 10.7723 4.80779C9.68092 4.8576 8.93555 5.03092 8.28328 5.28445C7.60898 5.54648 7.03717 5.89711 6.46711 6.46711C5.89705 7.03717 5.54643 7.60904 5.28439 8.28328C5.03092 8.93555 4.8576 9.68092 4.80773 10.7723C4.75787 11.866 4.74609 12.2152 4.74609 15C4.74609 17.7848 4.75787 18.134 4.80773 19.2277C4.8576 20.3191 5.03092 21.0645 5.28439 21.7167C5.54643 22.391 5.89705 22.9628 6.46711 23.5329C7.03717 24.1029 7.60898 24.4536 8.28328 24.7156C8.93555 24.9691 9.68092 25.1424 10.7723 25.1922C11.866 25.2421 12.2152 25.2539 15 25.2539C17.7848 25.2539 18.134 25.2421 19.2277 25.1922C20.3191 25.1424 21.0645 24.9691 21.7167 24.7156C22.391 24.4536 22.9628 24.1029 23.5329 23.5329C24.1029 22.9628 24.4536 22.391 24.7156 21.7167C24.9691 21.0645 25.1424 20.3191 25.1922 19.2277C25.2421 18.134 25.2539 17.7848 25.2539 15C25.2539 12.2152 25.2421 11.866 25.1922 10.7723C25.1424 9.68092 24.9691 8.93555 24.7156 8.28328C24.4536 7.60904 24.1029 7.03717 23.5329 6.46711C22.9628 5.89711 22.391 5.54648 21.7167 5.28445C21.0645 5.03092 20.3191 4.8576 19.2277 4.80779C18.134 4.75787 17.7848 4.74609 15 4.74609ZM15 6.59367C17.7379 6.59367 18.0622 6.6041 19.1435 6.65344C20.1432 6.69908 20.6861 6.86613 21.0475 7.00646C21.5261 7.1925 21.8677 7.41475 22.2265 7.77352C22.5853 8.13234 22.8075 8.47394 22.9935 8.95254C23.1339 9.31389 23.301 9.85682 23.3466 10.8565C23.3959 11.9378 23.4064 12.2621 23.4064 15C23.4064 17.7379 23.3959 18.0622 23.3466 19.1435C23.301 20.1432 23.1339 20.6861 22.9935 21.0475C22.8075 21.5261 22.5853 21.8677 22.2265 22.2265C21.8677 22.5853 21.5261 22.8075 21.0475 22.9935C20.6861 23.1339 20.1432 23.301 19.1435 23.3466C18.0624 23.3959 17.7381 23.4064 15 23.4064C12.2619 23.4064 11.9377 23.3959 10.8565 23.3466C9.85682 23.301 9.31389 23.1339 8.95254 22.9935C8.47389 22.8075 8.13234 22.5853 7.77352 22.2265C7.41469 21.8677 7.19244 21.5261 7.00646 21.0475C6.86607 20.6861 6.69902 20.1432 6.65338 19.1435C6.60404 18.0622 6.59361 17.7379 6.59361 15C6.59361 12.2621 6.60404 11.9378 6.65338 10.8565C6.69902 9.85682 6.86607 9.31389 7.00646 8.95254C7.19244 8.47394 7.41469 8.13234 7.77352 7.77352C8.13234 7.41475 8.47389 7.1925 8.95254 7.00646C9.31389 6.86613 9.85682 6.69908 10.8565 6.65344C11.9378 6.6041 12.2621 6.59367 15 6.59367ZM15 9.73447C12.0919 9.73447 9.73447 12.0919 9.73447 15C9.73447 17.9081 12.0919 20.2655 15 20.2655C17.9081 20.2655 20.2655 17.9081 20.2655 15C20.2655 12.0919 17.9081 9.73447 15 9.73447ZM15 18.4179C13.1123 18.4179 11.5821 16.8877 11.5821 15C11.5821 13.1123 13.1123 11.5821 15 11.5821C16.8877 11.5821 18.4179 13.1123 18.4179 15C18.4179 16.8877 16.8877 18.4179 15 18.4179ZM21.7041 9.52647C21.7041 10.206 21.1531 10.7569 20.4735 10.7569C19.794 10.7569 19.2431 10.206 19.2431 9.52647C19.2431 8.8469 19.794 8.296 20.4735 8.296C21.1531 8.296 21.7041 8.8469 21.7041 9.52647Z" fill="#828282"/>
</svg>
