<svg width="30" height="30" viewBox="0 0 30 30" fill="none" xmlns="http://www.w3.org/2000/svg">
<path fill-rule="evenodd" clip-rule="evenodd" d="M26.3347 0C28.3577 0 30 1.64238 30 3.66527V26.3347C30 28.3576 28.3576 30 26.3347 30H3.66527C1.64238 30 0 28.3576 0 26.3347V3.66527C0 1.64238 1.64232 0 3.66527 0H26.3347V0ZM11.4562 24.8756C19.4214 24.8756 23.7766 18.2754 23.7766 12.5552C23.7766 12.3667 23.7766 12.1781 23.7676 11.9985C24.6117 11.3879 25.3481 10.6246 25.9318 9.75352C25.1595 10.0948 24.3244 10.3283 23.4444 10.436C24.3424 9.89719 25.0248 9.05309 25.3481 8.03836C24.513 8.53225 23.588 8.89148 22.6003 9.089C21.81 8.2449 20.6875 7.72406 19.4394 7.72406C17.0507 7.72406 15.111 9.66375 15.111 12.0524C15.111 12.3936 15.147 12.7259 15.2278 13.0402C11.6268 12.8606 8.43896 11.1364 6.30176 8.51432C5.93355 9.15188 5.71805 9.89719 5.71805 10.6874C5.71805 12.1871 6.48135 13.5161 7.64871 14.2884C6.93932 14.2704 6.2748 14.0729 5.69109 13.7496V13.8035C5.69109 15.9047 7.18178 17.6469 9.16635 18.0509C8.80717 18.1497 8.42104 18.2036 8.02588 18.2036C7.7475 18.2036 7.47814 18.1767 7.20873 18.1228C7.75652 19.8469 9.3549 21.0951 11.2496 21.131C9.76799 22.2895 7.9002 22.9809 5.87074 22.9809C5.52053 22.9809 5.17928 22.9629 4.83803 22.918C6.73277 24.1573 9.01365 24.8756 11.4562 24.8756Z" fill="#828282"/>
</svg>
