<svg width="109" height="38" viewBox="0 0 109 38" fill="none" xmlns="http://www.w3.org/2000/svg">
<g filter="url(#filter0_d)">
<path d="M9.30375 6.19388C9.46382 6.31392 9.59386 6.46398 9.6939 6.64405C9.79394 6.81411 9.87397 6.98918 9.93399 7.16925C9.944 7.54939 9.949 8.00457 9.949 8.53477C9.949 9.06497 9.96901 9.61518 10.009 10.1854C10.049 10.7556 10.1241 11.3258 10.2341 11.896C10.3442 12.4563 10.5142 12.9615 10.7443 13.4116C10.9844 13.8618 11.2995 14.2269 11.6897 14.507C12.0898 14.7771 12.59 14.9122 13.1902 14.9122C13.7404 14.9122 14.2106 14.7821 14.6008 14.522C15.0009 14.262 15.3311 13.9318 15.5911 13.5317C15.8613 13.1315 16.0563 12.6863 16.1764 12.1962C16.3064 11.696 16.3714 11.2108 16.3714 10.7406C16.3714 9.83026 16.3264 8.90491 16.2364 7.96455C16.1464 7.01419 15.9813 6.09884 15.7412 5.21851C15.8112 5.03844 15.9013 4.9384 16.0113 4.91839C16.1214 4.88838 16.2414 4.87337 16.3714 4.87337C16.6315 4.87337 16.8366 4.97841 16.9867 5.18849C17.1367 5.39857 17.2468 5.66868 17.3168 5.9988C17.3968 6.31892 17.4419 6.67406 17.4519 7.06421C17.4719 7.44435 17.4719 7.80949 17.4519 8.15963C17.4419 8.49976 17.4218 8.80487 17.3918 9.07497C17.3718 9.33507 17.3618 9.50014 17.3618 9.57016C17.3618 10.0904 17.3468 10.6206 17.3168 11.1608C17.2968 11.691 17.2368 12.2012 17.1367 12.6914C17.0467 13.1815 16.9067 13.6417 16.7166 14.0719C16.5365 14.492 16.2914 14.8622 15.9813 15.1823C15.6712 15.4924 15.286 15.7375 14.8259 15.9176C14.3657 16.0976 13.8155 16.1877 13.1752 16.1877C12.3649 16.1877 11.6997 16.0326 11.1795 15.7225C10.6593 15.4124 10.2391 15.0022 9.91899 14.492C9.60887 13.9718 9.37378 13.3816 9.21372 12.7214C9.06366 12.0611 8.95362 11.3859 8.88359 10.6956C8.82357 10.0053 8.77855 9.32507 8.74854 8.65481C8.72853 7.98456 8.69852 7.37933 8.65851 6.83912L9.30375 6.19388Z" fill="#FF5555"/>
<path d="M22.1486 24.4708C22.7089 24.4708 23.2091 24.3658 23.6492 24.1557C24.0894 23.9556 24.4595 23.6755 24.7596 23.3154C25.0698 22.9653 25.3049 22.5601 25.4649 22.0999C25.635 21.6498 25.72 21.1796 25.72 20.6894C25.72 20.4393 25.705 20.1092 25.675 19.699C25.655 19.2889 25.62 18.8437 25.57 18.3635C25.5199 17.8833 25.4449 17.3931 25.3449 16.893C25.2548 16.3928 25.1398 15.9226 24.9997 15.4824C24.8597 15.0322 24.6846 14.6421 24.4745 14.312C24.2745 13.9718 24.0394 13.7317 23.7693 13.5917C23.5092 13.7918 23.2541 13.9768 23.004 14.1469C22.7539 14.307 22.4938 14.442 22.2237 14.5521C21.9536 14.6621 21.6735 14.7521 21.3834 14.8222C21.0932 14.8822 20.7831 14.9122 20.453 14.9122C20.0228 14.9122 19.6527 14.8722 19.3426 14.7922C19.0425 14.7121 18.7874 14.5771 18.5773 14.387C18.3772 14.1969 18.2272 13.9468 18.1271 13.6367C18.0271 13.3266 17.9771 12.9364 17.9771 12.4663C17.9771 12.1361 18.0571 11.816 18.2172 11.5059C18.3772 11.1858 18.5873 10.8907 18.8474 10.6206C19.1175 10.3405 19.4176 10.0854 19.7477 9.85527C20.0879 9.62518 20.433 9.42511 20.7831 9.25504C21.1433 9.08498 21.4934 8.95493 21.8335 8.86489C22.1837 8.77486 22.4938 8.72984 22.7639 8.72984C23.024 8.72984 23.2391 8.73985 23.4091 8.75985C23.5792 8.76986 23.7242 8.80987 23.8443 8.8799C23.9643 8.93992 24.0644 9.03996 24.1444 9.18001C24.2344 9.31006 24.3195 9.49013 24.3995 9.72022C24.6296 10.5005 24.8947 11.3408 25.1948 12.2412C25.4949 13.1415 25.78 14.0669 26.0501 15.0172C26.3202 15.9676 26.5453 16.923 26.7254 17.8833C26.9155 18.8537 27.0105 19.7891 27.0105 20.6894C27.0105 21.4897 26.8955 22.165 26.6654 22.7152C26.4453 23.2754 26.1502 23.7306 25.78 24.0807C25.4199 24.4408 25.0047 24.7159 24.5346 24.906C24.0744 25.0961 23.6092 25.2161 23.139 25.2661C22.6688 25.3262 22.2137 25.3412 21.7735 25.3112C21.3333 25.2811 20.9532 25.2211 20.6331 25.1311C20.3129 25.0511 20.0679 24.956 19.8978 24.846C19.7377 24.7359 19.6977 24.6409 19.7777 24.5609C19.8678 24.4908 20.0979 24.4408 20.468 24.4108C20.8381 24.3808 21.3984 24.4008 22.1486 24.4708ZM22.3587 9.99032C21.6184 10.1504 21.0182 10.3755 20.558 10.6656C20.1079 10.9457 19.7677 11.2508 19.5377 11.5809C19.3176 11.9011 19.1975 12.2262 19.1775 12.5563C19.1575 12.8764 19.2175 13.1515 19.3576 13.3816C19.4976 13.6117 19.6977 13.7868 19.9578 13.9068C20.2279 14.0169 20.533 14.0219 20.8732 13.9218C21.2133 13.8118 21.5734 13.5817 21.9536 13.2316C22.3437 12.8814 22.7339 12.3612 23.124 11.671C23.124 11.5009 23.124 11.3158 23.124 11.1158C23.134 10.9157 23.119 10.7356 23.079 10.5755C23.039 10.4055 22.964 10.2654 22.8539 10.1554C22.7439 10.0453 22.5788 9.99032 22.3587 9.99032Z" fill="#FF5555"/>
<path d="M27.3256 7.99456C27.3256 7.70445 27.3056 7.42435 27.2656 7.15424C27.2256 6.87414 27.2156 6.62904 27.2356 6.41896C27.2556 6.19888 27.3306 6.02381 27.4607 5.89376C27.6007 5.76371 27.8508 5.69869 28.211 5.69869C28.321 5.92878 28.426 6.27891 28.5261 6.74909C28.6361 7.21927 28.7412 7.75947 28.8412 8.36971C28.9412 8.97994 29.0363 9.64519 29.1263 10.3655C29.2163 11.0757 29.2964 11.791 29.3664 12.5113C29.4464 13.2316 29.5115 13.9418 29.5615 14.6421C29.6215 15.3324 29.6665 15.9626 29.6965 16.5328C29.3664 16.7529 29.1013 16.7679 28.9012 16.5778C28.7011 16.3878 28.5361 16.0676 28.406 15.6175C28.276 15.1573 28.1759 14.6021 28.1059 13.9518C28.0359 13.2916 27.9659 12.6113 27.8958 11.9111C27.8358 11.2008 27.7608 10.5055 27.6708 9.82526C27.5807 9.135 27.4657 8.52476 27.3256 7.99456Z" fill="#FF5555"/>
<path d="M31.1071 10.8607C31.1071 10.8006 31.1071 10.7056 31.1071 10.5755C31.1171 10.4355 31.1221 10.2904 31.1221 10.1404C31.1321 9.99032 31.1371 9.84527 31.1371 9.70521C31.1471 9.56516 31.1521 9.46512 31.1521 9.4051C31.2621 9.24504 31.4022 9.11499 31.5722 9.01495C31.7523 8.91491 31.9324 8.83488 32.1124 8.77486C32.1425 9.31507 32.2275 9.89029 32.3675 10.5005C32.5076 11.1107 32.6577 11.726 32.8177 12.3462C32.9778 12.9565 33.1178 13.5617 33.2379 14.1619C33.3679 14.7621 33.4329 15.3224 33.4329 15.8426C33.4329 16.2927 33.2029 16.5178 32.7427 16.5178C32.4626 16.5178 32.2275 16.4028 32.0374 16.1727C31.8473 15.9426 31.6923 15.6525 31.5722 15.3023C31.4622 14.9422 31.3722 14.5471 31.3021 14.1169C31.2321 13.6767 31.1821 13.2466 31.1521 12.8264C31.1321 12.4062 31.1171 12.0211 31.1071 11.671C31.1071 11.3208 31.1071 11.0507 31.1071 10.8607ZM31.3171 5.23351C31.5072 5.31354 31.6673 5.44359 31.7973 5.62366C31.9274 5.80373 31.9824 5.96879 31.9624 6.11885C31.9524 6.2589 31.8423 6.35894 31.6323 6.41896C31.4222 6.46898 31.072 6.40896 30.5819 6.23889C30.5819 5.96879 30.6319 5.7337 30.7319 5.53363C30.842 5.33355 31.037 5.23351 31.3171 5.23351Z" fill="#FF5555"/>
<path d="M40.9658 6.31392C40.9658 5.89376 41.0859 5.54863 41.326 5.27853C41.576 5.00843 41.8812 4.79835 42.2413 4.64829C42.6114 4.48823 43.0066 4.38319 43.4268 4.33317C43.8469 4.27314 44.2271 4.24313 44.5672 4.24313C45.2174 4.24313 45.7626 4.37318 46.2028 4.63328C46.653 4.88338 47.0131 5.21851 47.2832 5.63867C47.5633 6.05883 47.7634 6.54401 47.8835 7.09422C48.0035 7.64443 48.0635 8.20464 48.0635 8.77486C48.0635 9.155 48.0235 9.60518 47.9435 10.1254C47.8634 10.6356 47.7434 11.1658 47.5833 11.716C47.4233 12.2562 47.2232 12.7964 46.9831 13.3366C46.753 13.8668 46.4829 14.347 46.1728 14.7771C45.8627 15.1973 45.5126 15.5374 45.1224 15.7975C44.7423 16.0576 44.3221 16.1877 43.8619 16.1877C43.7719 16.1877 43.6618 16.0676 43.5318 15.8275C43.4118 15.5775 43.2717 15.2473 43.1116 14.8372C42.9616 14.427 42.8015 13.9568 42.6315 13.4266C42.4714 12.8864 42.3113 12.3312 42.1513 11.761C41.9912 11.1808 41.8412 10.6006 41.7011 10.0203C41.561 9.44011 41.431 8.90491 41.311 8.41472C41.2009 7.92454 41.1159 7.49437 41.0559 7.12423C40.9958 6.75409 40.9658 6.48399 40.9658 6.31392ZM42.2113 7.16925C42.2113 7.48937 42.2313 7.85451 42.2713 8.26467C42.3213 8.67482 42.3914 9.09998 42.4814 9.54015C42.5814 9.98032 42.7015 10.4255 42.8415 10.8757C42.9916 11.3158 43.1617 11.731 43.3517 12.1211C43.5418 12.5113 43.7569 12.8664 43.997 13.1865C44.2371 13.4967 44.5072 13.7418 44.8073 13.9218C45.1474 13.4416 45.4425 13.0115 45.6926 12.6313C45.9427 12.2512 46.1478 11.871 46.3079 11.4909C46.4679 11.1107 46.583 10.7056 46.653 10.2754C46.733 9.84527 46.773 9.34508 46.773 8.77486C46.773 8.3647 46.748 7.96455 46.698 7.5744C46.648 7.18425 46.5379 6.83912 46.3679 6.53901C46.2078 6.22889 45.9777 5.9838 45.6776 5.80373C45.3775 5.61366 44.9823 5.51862 44.4922 5.51862C44.092 5.51862 43.7019 5.58364 43.3217 5.71369C42.9516 5.83374 42.5914 5.9938 42.2413 6.19388C42.2413 6.22389 42.2363 6.28391 42.2263 6.37395C42.2263 6.46398 42.2263 6.56402 42.2263 6.67406C42.2263 6.7741 42.2213 6.87414 42.2113 6.97417C42.2113 7.06421 42.2113 7.12923 42.2113 7.16925Z" fill="#FF5555"/>
<path d="M48.6487 12.3162C48.6487 11.776 48.7138 11.2358 48.8438 10.6956C48.9739 10.1554 49.1789 9.6702 49.4591 9.24004C49.7492 8.80987 50.1193 8.45974 50.5695 8.18964C51.0297 7.91953 51.5849 7.78448 52.2351 7.78448C52.6053 7.78448 52.9304 7.85451 53.2105 7.99456C53.4906 8.12461 53.7257 8.29968 53.9158 8.51976C54.1058 8.73985 54.2459 8.99995 54.3359 9.30006C54.436 9.59017 54.486 9.89529 54.486 10.2154C54.486 10.7256 54.3659 11.2208 54.1258 11.701C53.8957 12.1812 53.5806 12.6063 53.1805 12.9765C52.7903 13.3366 52.3402 13.6117 51.83 13.8018C51.3198 13.9818 50.7996 14.0219 50.2694 13.9218C50.2794 14.2119 50.3744 14.447 50.5545 14.6271C50.7445 14.7972 50.9696 14.9272 51.2297 15.0172C51.4898 15.1073 51.7599 15.1673 52.04 15.1973C52.3201 15.2173 52.5702 15.2273 52.7903 15.2273C53.0204 15.2273 53.2355 15.2073 53.4356 15.1673C53.6356 15.1273 53.8357 15.0823 54.0358 15.0322C54.2359 14.9822 54.436 14.9372 54.636 14.8972C54.8461 14.8572 55.0662 14.8372 55.2963 14.8372C55.3863 14.8372 55.4763 14.8422 55.5664 14.8522C55.6564 14.8622 55.7414 14.8872 55.8215 14.9272C55.9015 14.9572 55.9665 15.0122 56.0166 15.0923C56.0666 15.1623 56.0916 15.2523 56.0916 15.3624C56.0916 15.5524 56.0216 15.7125 55.8815 15.8426C55.7414 15.9626 55.5614 16.0676 55.3413 16.1577C55.1312 16.2477 54.8961 16.3177 54.636 16.3678C54.3759 16.4078 54.1208 16.4428 53.8707 16.4728C53.6306 16.4928 53.4056 16.5028 53.1955 16.5028C52.9954 16.5128 52.8453 16.5178 52.7453 16.5178C52.1051 16.5178 51.5298 16.4178 51.0196 16.2177C50.5095 16.0076 50.0793 15.7225 49.7292 15.3624C49.379 14.9922 49.1089 14.5521 48.9188 14.0419C48.7388 13.5217 48.6487 12.9464 48.6487 12.3162ZM50.2394 11.3408C50.2394 11.691 50.2844 11.9461 50.3744 12.1061C50.4744 12.2662 50.7095 12.3462 51.0797 12.3462C51.3398 12.3462 51.5949 12.3012 51.845 12.2112C52.0951 12.1111 52.3201 11.9761 52.5202 11.806C52.7303 11.636 52.8954 11.4359 53.0154 11.2058C53.1355 10.9757 53.1955 10.7256 53.1955 10.4555C53.1955 10.3054 53.1805 10.1504 53.1505 9.99032C53.1305 9.83026 53.0804 9.68521 53.0004 9.55516C52.9204 9.4151 52.8153 9.30506 52.6853 9.22503C52.5652 9.135 52.4052 9.08998 52.2051 9.08998C51.905 9.08998 51.6299 9.16001 51.3798 9.30006C51.1397 9.43011 50.9346 9.60518 50.7646 9.82526C50.5945 10.0353 50.4644 10.2754 50.3744 10.5455C50.2844 10.8056 50.2394 11.0707 50.2394 11.3408Z" fill="#FF5555"/>
<path d="M59.903 15.8125C60.0631 15.7025 60.2532 15.5624 60.4733 15.3924C60.7033 15.2123 60.9334 15.0222 61.1635 14.8222C61.3936 14.6221 61.6087 14.412 61.8088 14.1919C62.0088 13.9718 62.1639 13.7618 62.2739 13.5617C62.394 13.3516 62.454 13.1565 62.454 12.9765C62.454 12.7964 62.364 12.6463 62.1839 12.5263C61.8638 12.5263 61.5136 12.5413 61.1335 12.5713C60.7534 12.5913 60.3732 12.6013 59.9931 12.6013C59.6129 12.5913 59.2428 12.5563 58.8826 12.4963C58.5325 12.4363 58.2174 12.3262 57.9373 12.1662C57.6572 12.0061 57.4321 11.781 57.262 11.4909C57.102 11.1908 57.0219 10.8106 57.0219 10.3505C57.0219 9.81025 57.122 9.32507 57.3221 8.89491C57.5321 8.45474 57.8072 8.06959 58.1474 7.73947C58.4875 7.39934 58.8676 7.10422 59.2878 6.85413C59.718 6.59403 60.1481 6.37395 60.5783 6.19388C60.8384 6.2639 61.0785 6.38895 61.2986 6.56902C61.5187 6.74909 61.7087 6.94916 61.8688 7.16925C61.7988 7.38933 61.6587 7.5594 61.4486 7.67944C61.2485 7.79949 61.0135 7.90453 60.7434 7.99456C60.4833 8.0846 60.2082 8.17963 59.918 8.27967C59.6279 8.37971 59.3628 8.51476 59.1227 8.68483C58.8927 8.84489 58.6976 9.05997 58.5375 9.33007C58.3775 9.59017 58.2974 9.9353 58.2974 10.3655C58.2974 10.6856 58.3775 10.9207 58.5375 11.0707C58.6976 11.2208 58.9077 11.3258 59.1678 11.3859C59.4279 11.4359 59.723 11.4559 60.0531 11.4459C60.3832 11.4259 60.7183 11.4009 61.0585 11.3708C61.4086 11.3408 61.7487 11.3258 62.0789 11.3258C62.409 11.3158 62.7041 11.3558 62.9642 11.4459C63.2243 11.5259 63.4294 11.661 63.5794 11.851C63.7395 12.0411 63.8195 12.3212 63.8195 12.6914C63.8195 12.8514 63.7645 13.0565 63.6545 13.3066C63.5544 13.5567 63.4144 13.8268 63.2343 14.1169C63.0642 14.397 62.8592 14.6771 62.6191 14.9572C62.389 15.2373 62.1439 15.4924 61.8838 15.7225C61.6337 15.9426 61.3786 16.1277 61.1185 16.2777C60.8684 16.4178 60.6333 16.4878 60.4132 16.4878C60.2031 16.4878 60.0631 16.4128 59.9931 16.2627C59.933 16.1127 59.903 15.9626 59.903 15.8125Z" fill="#FF5555"/>
<path d="M65.05 10.8607C65.05 10.8006 65.05 10.7056 65.05 10.5755C65.06 10.4355 65.065 10.2904 65.065 10.1404C65.075 9.99032 65.08 9.84527 65.08 9.70521C65.09 9.56516 65.095 9.46512 65.095 9.4051C65.2051 9.24504 65.3451 9.11499 65.5152 9.01495C65.6952 8.91491 65.8753 8.83488 66.0554 8.77486C66.0854 9.31507 66.1704 9.89029 66.3105 10.5005C66.4505 11.1107 66.6006 11.726 66.7606 12.3462C66.9207 12.9565 67.0608 13.5617 67.1808 14.1619C67.3109 14.7621 67.3759 15.3224 67.3759 15.8426C67.3759 16.2927 67.1458 16.5178 66.6856 16.5178C66.4055 16.5178 66.1704 16.4028 65.9804 16.1727C65.7903 15.9426 65.6352 15.6525 65.5152 15.3023C65.4051 14.9422 65.3151 14.5471 65.2451 14.1169C65.175 13.6767 65.125 13.2466 65.095 12.8264C65.075 12.4062 65.06 12.0211 65.05 11.671C65.05 11.3208 65.05 11.0507 65.05 10.8607ZM65.2601 5.23351C65.4501 5.31354 65.6102 5.44359 65.7403 5.62366C65.8703 5.80373 65.9253 5.96879 65.9053 6.11885C65.8953 6.2589 65.7853 6.35894 65.5752 6.41896C65.3651 6.46898 65.015 6.40896 64.5248 6.23889C64.5248 5.96879 64.5748 5.7337 64.6749 5.53363C64.7849 5.33355 64.98 5.23351 65.2601 5.23351Z" fill="#FF5555"/>
<path d="M71.8326 24.4708C72.3928 24.4708 72.893 24.3658 73.3332 24.1557C73.7733 23.9556 74.1435 23.6755 74.4436 23.3154C74.7537 22.9653 74.9888 22.5601 75.1488 22.0999C75.3189 21.6498 75.4039 21.1796 75.4039 20.6894C75.4039 20.4393 75.3889 20.1092 75.3589 19.699C75.3389 19.2889 75.3039 18.8437 75.2539 18.3635C75.2039 17.8833 75.1288 17.3931 75.0288 16.893C74.9388 16.3928 74.8237 15.9226 74.6837 15.4824C74.5436 15.0322 74.3685 14.6421 74.1585 14.312C73.9584 13.9718 73.7233 13.7317 73.4532 13.5917C73.1931 13.7918 72.938 13.9768 72.6879 14.1469C72.4378 14.307 72.1777 14.442 71.9076 14.5521C71.6375 14.6621 71.3574 14.7521 71.0673 14.8222C70.7772 14.8822 70.4671 14.9122 70.1369 14.9122C69.7068 14.9122 69.3366 14.8722 69.0265 14.7922C68.7264 14.7121 68.4713 14.5771 68.2612 14.387C68.0611 14.1969 67.9111 13.9468 67.811 13.6367C67.711 13.3266 67.661 12.9364 67.661 12.4663C67.661 12.1361 67.741 11.816 67.9011 11.5059C68.0611 11.1858 68.2712 10.8907 68.5313 10.6206C68.8014 10.3405 69.1015 10.0854 69.4317 9.85527C69.7718 9.62518 70.1169 9.42511 70.4671 9.25504C70.8272 9.08498 71.1773 8.95493 71.5175 8.86489C71.8676 8.77486 72.1777 8.72984 72.4478 8.72984C72.7079 8.72984 72.923 8.73985 73.0931 8.75985C73.2631 8.76986 73.4082 8.80987 73.5282 8.8799C73.6483 8.93992 73.7483 9.03996 73.8283 9.18001C73.9184 9.31006 74.0034 9.49013 74.0834 9.72022C74.3135 10.5005 74.5786 11.3408 74.8787 12.2412C75.1789 13.1415 75.464 14.0669 75.7341 15.0172C76.0042 15.9676 76.2293 16.923 76.4093 17.8833C76.5994 18.8537 76.6944 19.7891 76.6944 20.6894C76.6944 21.4897 76.5794 22.165 76.3493 22.7152C76.1292 23.2754 75.8341 23.7306 75.464 24.0807C75.1038 24.4408 74.6887 24.7159 74.2185 24.906C73.7583 25.0961 73.2931 25.2161 72.823 25.2661C72.3528 25.3262 71.8976 25.3412 71.4574 25.3112C71.0173 25.2811 70.6371 25.2211 70.317 25.1311C69.9969 25.0511 69.7518 24.956 69.5817 24.846C69.4217 24.7359 69.3816 24.6409 69.4617 24.5609C69.5517 24.4908 69.7818 24.4408 70.1519 24.4108C70.5221 24.3808 71.0823 24.4008 71.8326 24.4708ZM72.0427 9.99032C71.3024 10.1504 70.7021 10.3755 70.242 10.6656C69.7918 10.9457 69.4517 11.2508 69.2216 11.5809C69.0015 11.9011 68.8815 12.2262 68.8615 12.5563C68.8414 12.8764 68.9015 13.1515 69.0415 13.3816C69.1816 13.6117 69.3816 13.7868 69.6417 13.9068C69.9118 14.0169 70.217 14.0219 70.5571 13.9218C70.8972 13.8118 71.2574 13.5817 71.6375 13.2316C72.0277 12.8814 72.4178 12.3612 72.808 11.671C72.808 11.5009 72.808 11.3158 72.808 11.1158C72.818 10.9157 72.8029 10.7356 72.7629 10.5755C72.7229 10.4055 72.6479 10.2654 72.5378 10.1554C72.4278 10.0453 72.2627 9.99032 72.0427 9.99032Z" fill="#FF5555"/>
<path d="M76.6494 11.4309C76.6494 11.1708 76.7144 10.9857 76.8445 10.8757C76.9745 10.7556 77.1846 10.6956 77.4747 10.6956H77.6248C77.6548 10.8557 77.6898 11.0407 77.7298 11.2508C77.7698 11.4609 77.8299 11.676 77.9099 11.896C77.9899 12.1161 78.085 12.3212 78.195 12.5113C78.305 12.6914 78.4401 12.8364 78.6002 12.9464C78.6102 12.5963 78.6952 12.2612 78.8553 11.9411C79.0253 11.6109 79.2304 11.3208 79.4705 11.0707C79.7206 10.8106 79.9907 10.5956 80.2808 10.4255C80.5809 10.2454 80.876 10.1254 81.1661 10.0654H81.4963C81.9764 10.0654 82.3866 10.1754 82.7267 10.3955C83.0669 10.6056 83.347 10.8857 83.5671 11.2358C83.7971 11.5759 83.9722 11.9661 84.0923 12.4062C84.2123 12.8464 84.3023 13.2966 84.3624 13.7568C84.4324 14.2069 84.4724 14.6471 84.4824 15.0773C84.5024 15.4974 84.5124 15.8576 84.5124 16.1577H83.417C83.357 15.5574 83.2819 14.9822 83.1919 14.432C83.1619 14.2119 83.1219 13.9818 83.0719 13.7418C83.0218 13.4917 82.9668 13.2616 82.9068 13.0515C82.8468 12.8314 82.7818 12.6313 82.7117 12.4513C82.6417 12.2612 82.5617 12.1011 82.4716 11.9711C82.4316 11.9311 82.3766 11.876 82.3066 11.806C82.2466 11.736 82.1815 11.666 82.1115 11.5959C82.0415 11.5259 81.9764 11.4659 81.9164 11.4159C81.8564 11.3658 81.8214 11.3408 81.8114 11.3408C81.5113 11.2608 81.2512 11.3208 81.0311 11.5209C80.811 11.711 80.6159 11.9711 80.4459 12.3012C80.2758 12.6313 80.1357 13.0065 80.0257 13.4266C79.9257 13.8468 79.8406 14.2519 79.7706 14.6421C79.7006 15.0222 79.6506 15.3574 79.6205 15.6475C79.5905 15.9276 79.5705 16.0976 79.5605 16.1577C79.3104 16.3377 79.0753 16.3928 78.8553 16.3227C78.6352 16.2427 78.4251 16.0826 78.225 15.8426C78.0349 15.6025 77.8599 15.3023 77.6998 14.9422C77.5498 14.5821 77.4097 14.2019 77.2797 13.8018C77.1496 13.3916 77.0296 12.9815 76.9195 12.5713C76.8195 12.1611 76.7294 11.781 76.6494 11.4309Z" fill="#FF5555"/>
<path d="M85.3377 12.3162C85.3377 11.776 85.4027 11.2358 85.5328 10.6956C85.6628 10.1554 85.8679 9.6702 86.148 9.24004C86.4381 8.80987 86.8083 8.45974 87.2585 8.18964C87.7186 7.91953 88.2738 7.78448 88.9241 7.78448C89.2942 7.78448 89.6194 7.85451 89.8995 7.99456C90.1796 8.12461 90.4147 8.29968 90.6047 8.51976C90.7948 8.73985 90.9349 8.99995 91.0249 9.30006C91.1249 9.59017 91.1749 9.89529 91.1749 10.2154C91.1749 10.7256 91.0549 11.2208 90.8148 11.701C90.5847 12.1812 90.2696 12.6063 89.8695 12.9765C89.4793 13.3366 89.0291 13.6117 88.5189 13.8018C88.0087 13.9818 87.4885 14.0219 86.9583 13.9218C86.9683 14.2119 87.0634 14.447 87.2435 14.6271C87.4335 14.7972 87.6586 14.9272 87.9187 15.0172C88.1788 15.1073 88.4489 15.1673 88.729 15.1973C89.0091 15.2173 89.2592 15.2273 89.4793 15.2273C89.7094 15.2273 89.9245 15.2073 90.1245 15.1673C90.3246 15.1273 90.5247 15.0823 90.7248 15.0322C90.9249 14.9822 91.1249 14.9372 91.325 14.8972C91.5351 14.8572 91.7552 14.8372 91.9853 14.8372C92.0753 14.8372 92.1653 14.8422 92.2554 14.8522C92.3454 14.8622 92.4304 14.8872 92.5105 14.9272C92.5905 14.9572 92.6555 15.0122 92.7055 15.0923C92.7556 15.1623 92.7806 15.2523 92.7806 15.3624C92.7806 15.5524 92.7105 15.7125 92.5705 15.8426C92.4304 15.9626 92.2504 16.0676 92.0303 16.1577C91.8202 16.2477 91.5851 16.3177 91.325 16.3678C91.0649 16.4078 90.8098 16.4428 90.5597 16.4728C90.3196 16.4928 90.0945 16.5028 89.8845 16.5028C89.6844 16.5128 89.5343 16.5178 89.4343 16.5178C88.794 16.5178 88.2188 16.4178 87.7086 16.2177C87.1984 16.0076 86.7683 15.7225 86.4181 15.3624C86.068 14.9922 85.7979 14.5521 85.6078 14.0419C85.4278 13.5217 85.3377 12.9464 85.3377 12.3162ZM86.9283 11.3408C86.9283 11.691 86.9734 11.9461 87.0634 12.1061C87.1634 12.2662 87.3985 12.3462 87.7687 12.3462C88.0288 12.3462 88.2839 12.3012 88.5339 12.2112C88.784 12.1111 89.0091 11.9761 89.2092 11.806C89.4193 11.636 89.5843 11.4359 89.7044 11.2058C89.8244 10.9757 89.8845 10.7256 89.8845 10.4555C89.8845 10.3054 89.8695 10.1504 89.8394 9.99032C89.8194 9.83026 89.7694 9.68521 89.6894 9.55516C89.6094 9.4151 89.5043 9.30506 89.3743 9.22503C89.2542 9.135 89.0942 9.08998 88.8941 9.08998C88.594 9.08998 88.3189 9.16001 88.0688 9.30006C87.8287 9.43011 87.6236 9.60518 87.4535 9.82526C87.2835 10.0353 87.1534 10.2754 87.0634 10.5455C86.9734 10.8056 86.9283 11.0707 86.9283 11.3408Z" fill="#FF5555"/>
<path d="M93.7109 10.1854C93.7109 10.0954 93.7159 10.0053 93.7259 9.91529C93.7359 9.81526 93.7559 9.73022 93.7859 9.6602C93.816 9.58017 93.861 9.51514 93.921 9.46512C93.991 9.4151 94.0861 9.39009 94.2061 9.39009C94.3061 9.39009 94.4162 9.47012 94.5362 9.63019C94.6663 9.78024 94.7963 9.97532 94.9264 10.2154C95.0564 10.4455 95.1815 10.7006 95.3015 10.9807C95.4316 11.2608 95.5416 11.5209 95.6317 11.761C95.7317 11.9911 95.8117 12.1912 95.8717 12.3612C95.9318 12.5313 95.9668 12.6213 95.9768 12.6313C96.1068 12.2812 96.2519 11.9011 96.4119 11.4909C96.572 11.0807 96.7671 10.7006 96.9972 10.3505C97.2373 9.99032 97.5174 9.69021 97.8375 9.45012C98.1676 9.21003 98.5678 9.08998 99.0379 9.08998C99.278 9.08998 99.5031 9.13 99.7132 9.21003C99.9333 9.28005 100.123 9.39009 100.283 9.54015C100.453 9.6802 100.589 9.85027 100.689 10.0503C100.789 10.2504 100.839 10.4805 100.839 10.7406C100.839 10.9607 100.749 11.1158 100.569 11.2058C100.398 11.2958 100.203 11.3408 99.9833 11.3408H99.8333L99.188 10.6956C99.168 10.6956 99.153 10.6906 99.143 10.6806C99.123 10.6806 99.103 10.6806 99.083 10.6806C99.073 10.6706 99.058 10.6656 99.0379 10.6656C98.6878 10.6656 98.4127 10.7656 98.2126 10.9657C98.0226 11.1558 97.8775 11.3959 97.7775 11.686C97.6774 11.9661 97.6124 12.2662 97.5824 12.5863C97.5624 12.8964 97.5524 13.1815 97.5524 13.4416C97.5524 13.6417 97.5724 13.8468 97.6124 14.0569C97.6524 14.2569 97.6974 14.457 97.7475 14.6571C97.7975 14.8472 97.8425 15.0472 97.8825 15.2573C97.9225 15.4574 97.9425 15.6675 97.9425 15.8876C97.9425 16.3077 97.7174 16.5178 97.2673 16.5178C97.0172 16.5178 96.7571 16.3878 96.487 16.1277C96.2169 15.8576 95.9468 15.5174 95.6767 15.1073C95.4166 14.6971 95.1665 14.2469 94.9264 13.7568C94.6863 13.2566 94.4762 12.7714 94.2961 12.3012C94.1161 11.831 93.971 11.4059 93.861 11.0257C93.7609 10.6456 93.7109 10.3655 93.7109 10.1854Z" fill="#FF5555"/>
</g>
<defs>
<filter id="filter0_d" x="0.658508" y="0.243134" width="108.18" height="37.083" filterUnits="userSpaceOnUse" color-interpolation-filters="sRGB">
<feFlood flood-opacity="0" result="BackgroundImageFix"/>
<feColorMatrix in="SourceAlpha" type="matrix" values="0 0 0 0 0 0 0 0 0 0 0 0 0 0 0 0 0 0 127 0"/>
<feOffset dy="4"/>
<feGaussianBlur stdDeviation="4"/>
<feColorMatrix type="matrix" values="0 0 0 0 0 0 0 0 0 0 0 0 0 0 0 0 0 0 0.25 0"/>
<feBlend mode="normal" in2="BackgroundImageFix" result="effect1_dropShadow"/>
<feBlend mode="normal" in="SourceGraphic" in2="effect1_dropShadow" result="shape"/>
</filter>
</defs>
</svg>
